# xmcd
#
# Track frame offsets:
#   150
#   14748
#   29705
#   46521
#   66099
#   86704
#   108510
#   127981
#   142623
#   158278
#   176642
#   195918
#   213705
#   230423
#   244440
#   262218
#   278769
#   295321
#   311463
#
# Disc length: 4417 seconds
#
# Revision: 0
# Processed by: cddbd v1.5.2PL0 Copyright (c) Steve Scherf et al.
# Submitted via: GXTranscoder 2.0.1939
#
DISCID=10113f13
DTITLE=1 - 1
DYEAR=1900
DGENRE=Blues
TTITLE0=1
TTITLE1=1
TTITLE2=1
TTITLE3=1
TTITLE4=1
TTITLE5=1
TTITLE6=1
TTITLE7=1
TTITLE8=1
TTITLE9=1
TTITLE10=1
TTITLE11=1
TTITLE12=1
TTITLE13=1
TTITLE14=1
TTITLE15=1
TTITLE16=1
TTITLE17=1
TTITLE18=1
EXTD=
EXTT0=
EXTT1=
EXTT2=
EXTT3=
EXTT4=
EXTT5=
EXTT6=
EXTT7=
EXTT8=
EXTT9=
EXTT10=
EXTT11=
EXTT12=
EXTT13=
EXTT14=
EXTT15=
EXTT16=
EXTT17=
EXTT18=
PLAYORDER=
